#!OML:ASF E:\emotionWalksFemale\Project 1\Capture day 1\Session 1\Female1.ASF
:FULLY-SPECIFIED
:DEGREES
239
root 9.08283 14.6433 23.2552 192.48 5.626 -178.88
lowerback 19.3748 -0.633501 0.386891
upperback -2.39893 -0.616857 0.780641
thorax -13.6506 -0.260499 0.843759
lowerneck -9.63678 -0.363351 -5.23293
upperneck -4.99151 0.593896 5.78528
head 0.0489531 0.638147 2.78219
rclavicle 1.01784e-014 7.20594e-015
rhumerus -42.4638 8.02282 10.0075
rradius 33.4794
rwrist 26.6277
rhand -1.23294 -62.7746
rfingers 7.12502
rthumb 24.4089 91.2398
lclavicle 1.01784e-014 7.20594e-015
lhumerus -43.71 16.6798 -19.1956
lradius 38.6006
lwrist -5.45365
lhand -10.9618 -23.0628
lfingers 7.12502
lthumb 15.0573 6.36963
rfemur -32.5153 0.98163 25.1241
rtibia 50.2083
rfoot -29.3876 -17.5208
rtoes -3.25914
lfemur -39.3754 12.9371 -27.4064
ltibia 57.1257
lfoot -30.7966 11.3431
ltoes -5.44305
240
root 9.08346 14.5716 23.2441 193.01 5.37865 -178.78
lowerback 19.6415 -0.600765 0.388557
upperback -2.642 -0.559881 0.87283
thorax -14.0935 -0.228878 0.937282
lowerneck -9.74961 -0.380485 -5.1929
upperneck -5.05509 0.581371 5.60242
head 0.0481821 0.635409 2.71275
rclavicle 1.32005e-014 -4.34841e-015
rhumerus -43.6141 8.52824 8.98478
rradius 33.4002
rwrist 27.173
rhand -1.70386 -63.2319
rfingers 7.12502
rthumb 23.9574 91.7571
lclavicle 1.32005e-014 -4.34841e-015
lhumerus -44.6191 16.034 -18.0912
lradius 38.9153
lwrist -4.45303
lhand -12.4256 -23.4102
lfingers 7.12502
lthumb 13.6468 6.12239
rfemur -33.8217 0.405208 25.4096
rtibia 51.9273
rfoot -30.4103 -17.3686
rtoes -1.94611
lfemur -40.5378 12.915 -27.48
ltibia 58.3906
lfoot -31.7648 10.8336
ltoes -3.31603
241
root 9.0862 14.4892 23.2405 193.583 5.01238 -178.583
lowerback 18.8276 -0.644216 0.548539
upperback -2.19672 -0.568673 0.96792
thorax -13.0932 -0.241244 0.934888
lowerneck -9.86959 -0.483204 -5.24249
upperneck -6.07736 0.587467 5.59981
head -0.25909 0.68374 2.71736
rclavicle -8.49804e-015 2.16924e-014
rhumerus -44.7936 7.54024 7.80101
rradius 33.0931
rwrist 27.9104
rhand -2.42929 -63.3775
rfingers 7.12502
rthumb 23.2616 91.9924
lclavicle -8.49804e-015 2.16924e-014
lhumerus -46.0421 16.9493 -17.1543
lradius 39.1792
lwrist -3.75301
lhand -13.4766 -23.8861
lfingers 7.12502
lthumb 12.6337 5.71185
rfemur -35.2071 -0.139708 25.8504
rtibia 53.6547
rfoot -31.2293 -17.5382
rtoes -2.05028
lfemur -41.7633 12.6178 -27.2749
ltibia 59.6265
lfoot -32.2553 10.9418
ltoes -7.99333
242
root 9.09044 14.395 23.2469 194.331 4.47795 -178.479
lowerback 19.0809 -0.741765 0.707236
upperback -2.4412 -0.659515 0.977625
thorax -13.5277 -0.294845 0.891314
lowerneck -10.099 -0.568326 -5.16265
upperneck -6.45483 0.545554 5.70353
head -0.33869 0.688323 2.73668
rclavicle -7.15625e-015 -7.46064e-015
rhumerus -46.0961 7.60007 6.16326
rradius 32.9353
rwrist 28.4663
rhand -3.27047 -63.6744
rfingers 7.12502
rthumb 22.4544 92.3891
lclavicle -7.15625e-015 -7.46064e-015
lhumerus -47.2911 17.1005 -16.1454
lradius 39.5563
lwrist -3.14484
lhand -13.8105 -24.4838
lfingers 7.12502
lthumb 12.3118 5.13372
rfemur -36.9501 -0.77882 26.2736
rtibia 55.4936
rfoot -31.8461 -17.9151
rtoes -2.18359
lfemur -43.2656 12.0015 -27.0567
ltibia 60.8887
lfoot -32.7837 11.0071
ltoes -13.6973
243
root 9.09666 14.3015 23.262 195.187 3.86446 -178.493
lowerback 18.8127 -0.822066 0.613925
upperback -2.45951 -0.786916 1.03147
thorax -13.3872 -0.345185 1.03885
lowerneck -10.1872 -0.635946 -4.93228
upperneck -7.2206 0.545976 5.60333
head -0.569441 0.720796 2.65795
rclavicle -7.59472e-015 1.10415e-014
rhumerus -47.4325 7.38775 4.20787
rradius 32.8313
rwrist 28.8986
rhand -3.51576 -63.9597
rfingers 7.12502
rthumb 22.2189 92.7027
lclavicle -7.59472e-015 1.10415e-014
lhumerus -48.717 17.4048 -14.777
lradius 39.9947
lwrist -2.46512
lhand -14.0029 -24.567
lfingers 7.12502
lthumb 12.1263 5.06157
rfemur -38.9314 -1.42055 26.6333
rtibia 57.3948
rfoot -32.3851 -18.3386
rtoes -1.51449
lfemur -44.9126 11.2345 -26.8981
ltibia 62.1475
lfoot -33.49 10.9434
ltoes -18.9467
244
root 9.10994 14.1869 23.2974 195.992 3.11468 -178.559
lowerback 19.484 -0.859979 0.56649
upperback -2.7831 -0.835516 1.07403
thorax -14.1626 -0.35807 1.14921
lowerneck -10.6058 -0.815433 -4.89438
upperneck -7.49967 0.388297 5.5685
head -0.579906 0.673143 2.63636
rclavicle 2.12451e-015 4.60311e-015
rhumerus -48.9004 7.22144 2.25816
rradius 32.6369
rwrist 29.437
rhand -3.07741 -63.9396
rfingers 7.12502
rthumb 22.6397 92.6318
lclavicle 2.12451e-015 4.60311e-015
lhumerus -49.8244 17.4651 -12.925
lradius 40.274
lwrist -2.01256
lhand -14.1967 -24.6149
lfingers 7.12502
lthumb 11.9395 5.02465
rfemur -41.0823 -1.94309 27.0322
rtibia 59.402
rfoot -32.7592 -19.1649
rtoes -2.24577
lfemur -46.6709 10.3327 -26.6862
ltibia 63.485
lfoot -34.1344 10.8431
ltoes -23.057
245
root 9.12178 14.0766 23.31 196.853 2.43311 -178.507
lowerback 19.1102 -0.854377 0.576566
upperback -2.71326 -0.821346 1.13723
thorax -13.8576 -0.35079 1.20092
lowerneck -10.9126 -1.00829 -4.72097
upperneck -8.29907 0.266236 5.49038
head -0.779304 0.661892 2.57451
rclavicle 3.97569e-015 -9.81499e-015
rhumerus -50.335 6.14565 0.243537
rradius 32.3209
rwrist 30.3449
rhand -4.56947 -64.1783
rfingers 7.12502
rthumb 21.207 93.0383
lclavicle 3.97569e-015 -9.81499e-015
lhumerus -50.9207 18.2979 -10.9829
lradius 40.304
lwrist -2.11745
lhand -14.0841 -24.956
lfingers 7.12502
lthumb 12.048 4.67723
rfemur -43.0041 -2.32486 27.5038
rtibia 61.3159
rfoot -33.2743 -20.0531
rtoes -3.88216
lfemur -48.3091 9.66687 -26.4367
ltibia 64.7983
lfoot -35.0264 10.3368
ltoes -23.6026
246
root 9.13745 13.9709 23.3227 197.809 1.62296 -178.459
lowerback 18.9165 -0.904995 0.566372
upperback -2.82589 -0.883847 1.21847
thorax -13.8721 -0.375097 1.31573
lowerneck -11.0149 -1.16377 -4.67089
upperneck -9.19679 0.217653 5.60843
head -1.04989 0.690704 2.60453
rclavicle 2.23881e-014 1.44119e-015
rhumerus -51.6674 5.26 -2.04156
rradius 32.0316
rwrist 31.2164
rhand -5.46488 -64.3617
rfingers 7.12502
rthumb 20.3467 93.3158
lclavicle 2.23881e-014 1.44119e-015
lhumerus -52.0623 18.8272 -8.84639
lradius 40.4148
lwrist -2.26493
lhand -13.833 -25.3006
lfingers 7.12502
lthumb 12.2901 4.31827
rfemur -44.9228 -2.69311 27.9877
rtibia 63.1515
rfoot -34.0999 -20.3489
rtoes -3.31683
lfemur -50.2366 9.09681 -26.3121
ltibia 66.144
lfoot -35.6196 9.67445
ltoes -22.8009
247
root 9.14918 13.8889 23.3185 198.483 1.04041 -178.679
lowerback 18.7932 -0.841519 0.326455
upperback -2.81445 -0.868326 1.16146
thorax -13.7823 -0.353761 1.38075
lowerneck -11.4501 -1.49643 -4.67773
upperneck -9.77088 -0.0600194 5.85931
head -1.14848 0.609561 2.68528
rclavicle 6.23687e-015 -1.04362e-015
rhumerus -53.036 4.29842 -4.5083
rradius 31.7583
rwrist 31.7771
rhand -6.07741 -64.4856
rfingers 7.12502
rthumb 19.7579 93.5014
lclavicle 6.23687e-015 -1.04362e-015
lhumerus -53.0307 19.4122 -6.33232
lradius 40.5262
lwrist -2.59592
lhand -13.7313 -25.7093
lfingers 7.12502
lthumb 12.3882 3.9036
rfemur -46.3724 -3.07895 28.0449
rtibia 64.8198
rfoot -34.9631 -20.2888
rtoes -1.88054
lfemur -51.7572 8.77774 -26.6372
ltibia 67.4083
lfoot -35.8974 9.61187
ltoes -23.809
248
root 9.16154 13.8181 23.3088 198.942 0.749658 -179.086
lowerback 18.5558 -0.617486 -0.263748
upperback -2.62756 -0.729585 1.0328
thorax -13.4195 -0.254743 1.52247
lowerneck -11.8961 -1.92973 -4.59316
upperneck -10.323 -0.481865 6.0493
head -1.23041 0.455733 2.72382
rclavicle 1.15792e-014 -2.8948e-015
rhumerus -54.4196 3.23986 -7.39007
rradius 31.6114
rwrist 32.1636
rhand -6.1525 -64.9995
rfingers 7.12502
rthumb 19.6858 94.0227
lclavicle 1.15792e-014 -2.8948e-015
lhumerus -53.792 20.1023 -3.38804
lradius 40.4994
lwrist -3.02395
lhand -13.8591 -26.5584
lfingers 7.12502
lthumb 12.2649 3.06196
rfemur -47.5711 -3.28482 27.7578
rtibia 66.4065
rfoot -35.4956 -20.4453
rtoes -1.53801
lfemur -52.9458 8.76785 -27.2915
ltibia 68.6706
lfoot -36.071 9.70875
ltoes -24.9755
249
root 9.1798 13.7397 23.3154 199.655 0.375854 -179.26
lowerback 18.1718 -0.434146 -0.738626
upperback -2.55507 -0.59745 1.02482
thorax -13.1069 -0.162423 1.7372
lowerneck -11.9096 -2.26276 -4.74256
upperneck -11.1976 -0.718921 6.42461
head -1.50008 0.401297 2.87797
rclavicle -5.69021e-015 4.69629e-015
rhumerus -55.442 1.88487 -10.2301
rradius 31.1626
rwrist 32.7566
rhand -6.17996 -65.3097
rfingers 7.12502
rthumb 19.6594 94.3356
lclavicle -5.69021e-015 4.69629e-015
lhumerus -54.5065 20.7674 -0.256233
lradius 40.2777
lwrist -3.42465
lhand -13.9583 -27.9889
lfingers 7.12502
lthumb 12.1693 1.63709
rfemur -49.1775 -3.33534 27.7829
rtibia 67.9137
rfoot -35.761 -20.6099
rtoes -1.04731
lfemur -54.5746 8.73288 -27.6904
ltibia 69.9316
lfoot -36.1901 9.25127
ltoes -23.9027
250
root 9.19957 13.6441 23.3406 200.77 -0.224565 -179.018
lowerback 18.3316 -0.292958 -0.849242
upperback -3.11855 -0.439488 1.23094
thorax -13.8626 -0.071484 2.00122
lowerneck -11.6857 -2.52043 -5.04622
upperneck -11.7476 -0.927569 6.77394
head -1.70419 0.334212 3.05502
rclavicle 3.8763e-015 -4.37326e-015
rhumerus -56.3613 1.33872 -13.2847
rradius 30.8206
rwrist 32.7416
rhand -5.90225 -65.6547
rfingers 7.12502
rthumb 19.9263 94.6531
lclavicle 3.8763e-015 -4.37326e-015
lhumerus -55.1717 20.6369 3.26447
lradius 39.9876
lwrist -3.63182
lhand -13.8424 -29.2687
lfingers 7.12502
lthumb 12.281 0.350714
rfemur -51.3479 -3.27852 28.4003
rtibia 69.3768
rfoot -35.8812 -20.7586
rtoes 0.191237
lfemur -56.9256 8.47535 -27.5791
ltibia 71.2579
lfoot -36.1886 8.74651
ltoes -22.8879
251
root 9.22427 13.5776 23.3465 201.247 -1.54339 -179.206
lowerback 18.7108 -0.430057 -1.06976
upperback -3.3018 -0.650911 1.4236
thorax -14.2933 -0.131935 2.42019
lowerneck -11.4989 -2.86195 -5.34146
upperneck -12.4572 -1.21346 7.11784
head -1.9511 0.241774 3.23106
rclavicle 6.85807e-015 3.57812e-015
rhumerus -56.936 0.289183 -16.5208
rradius 30.4695
rwrist 32.3007
rhand -5.88549 -66.1107
rfingers 7.12502
rthumb 19.9424 95.1075
lclavicle 6.85807e-015 3.57812e-015
lhumerus -55.6296 20.5087 7.36661
lradius 39.7447
lwrist -3.30566
lhand -13.6911 -29.8011
lfingers 7.12502
lthumb 12.427 -0.190553
rfemur -52.4712 -3.97918 28.7492
rtibia 70.6301
rfoot -36.3851 -20.9482
rtoes 1.35952
lfemur -58.1342 7.5128 -27.4331
ltibia 72.2792
lfoot -36.1802 8.44733
ltoes -23.2261
252
root 9.23539 13.5148 23.3582 202.012 -2.18623 -179.574
lowerback 18.5658 -0.337979 -1.5091
upperback -3.37958 -0.637441 1.35076
thorax -14.2956 -0.0905965 2.5826
lowerneck -11.5982 -3.32782 -5.54764
upperneck -13.1955 -1.59766 7.69387
head -2.15207 0.119974 3.47089
rclavicle 3.8763e-015 -1.86858e-014
rhumerus -57.2124 -1.47611 -19.916
rradius 29.8835
rwrist 31.9835
rhand -6.13152 -66.5755
rfingers 7.12502
rthumb 19.7059 95.5967
lclavicle 3.8763e-015 -1.86858e-014
lhumerus -55.7288 20.4589 11.8924
lradius 39.5577
lwrist -2.86635
lhand -13.5202 -30.3444
lfingers 7.12502
lthumb 12.5918 -0.743929
rfemur -54.0165 -4.29768 28.6467
rtibia 71.8179
rfoot -36.3055 -21.238
rtoes 1.49306
lfemur -59.5182 6.79743 -27.7686
ltibia 73.1247
lfoot -35.9575 8.74489
ltoes -24.9897
